<svg xmlns="http://www.w3.org/2000/svg" width="327" height="415" viewBox="0 0 326 415" fill="none">
  <path stroke-width="8.2029" stroke="#c3cbd4" d="M204.235 109.672C204.851 111.33 205.159 113.018 205.159 114.705V208.219L242.583 235.842V308.393L238.425 310.768L242.255 317.848L242.036 390.135L234.157 394.621L224.965 389.369L216.43 340.564L198.269 314.671L197.39 315.177V313.416L188.446 300.665L185.622 302.285C189.155 312.091 191.746 319.335 191.699 319.335C191.91 319.914 192.07 320.468 192.179 321.02C193.386 324.35 194.107 326.339 194.107 326.339H193.997C194.435 327.652 194.654 328.855 194.763 330.059C194.763 334.655 191.699 339.251 185.571 342.753C179.553 346.254 171.455 348.005 163.467 348.005C155.369 348.005 147.381 346.254 141.253 342.753C135.125 339.251 132.061 334.655 132.061 330.059V329.621C132.17 328.199 132.499 326.886 133.046 325.573L134.38 321.856C134.461 320.808 134.769 319.704 135.234 318.679L141.119 302.301L138.269 300.665L110.285 340.564L101.75 389.369L92.5578 394.621L84.679 390.135V318.1L84.6431 317.752L84.679 317.697V317.584L88.2899 310.768L84.1318 308.393V235.842L121.556 208.219V114.705V114.158C121.576 113.795 121.608 113.439 121.65 113.09L121.651 113.082C121.728 112.427 121.851 111.772 122.021 111.122C122.235 110.296 122.517 109.491 122.869 108.687L130.622 87.0817C130.718 86.7329 130.833 86.3842 130.967 86.0354L142.019 55.2863L141.91 55.6146L141.9 55.6518L152.633 25.7409C153.29 22.7863 157.777 20.3789 163.248 20.3789L163.303 20.379L163.357 20.3789C168.5 20.3789 172.768 22.458 173.862 25.1937C179.771 41.6079 189.073 67.4328 195.967 86.1449C196.203 86.7954 196.376 87.4461 196.485 88.1139C201.035 100.695 204.284 109.672 204.284 109.672H204.235Z"/>
</svg>