<svg xmlns="http://www.w3.org/2000/svg" style="width: 100%; height:100%" width="326" height="415" viewBox="0 0 326 415" fill="none">
  <path stroke-width="8.2029" stroke="#c3cbd4" d="M93.7386 64.891C93.5076 64.891 81.8406 67.9618 80.6954 68.2763C76.7167 69.6896 73.3049 73.5571 71.6882 78.6381L28.961 212.709C27.4598 217.79 27.6907 223.333 29.5384 228.414C31.2706 233.496 34.6195 237.884 39.0077 240.54L218.462 348.628C222.735 351.284 226.861 351.315 231.6 350.268C231.6 350.268 241.211 348.313 245.484 346.581C249.295 344.849 252.528 341.269 254.145 336.188L296.872 203.156C300.336 192.647 295.717 179.714 286.825 174.286L107.371 66.1976C102.752 63.3107 97.9018 63.932 93.7386 64.891Z"/>
</svg>