<svg xmlns="http://www.w3.org/2000/svg" style="width: 100%; height:100%" width="326" height="415" viewBox="0 0 326 415" fill="none">
  <defs>
    <!--Define a linear gradient with the id fill_robot-->
    <linearGradient x1="0" x2="0" y1="1" y2="0" id="fill_robot" fill="#FFF">
      <!--Define the starting color of the gradient. This should be 0%-->
      <stop offset="0%" stop-opacity="1" stop-color="#7B56DB"/>
      <!--Define the end of that same color of the gradient. This will be the search token from our search-->
      <stop offset="$Inventory totals:result.current_robots$%" stop-opacity="1" stop-color="#7B56DB"/>
      <!--Define the start of the empty space of the gradient. This should be an identical value to the end of the color-->
      <stop offset="$Inventory totals:result.current_robots$%" stop-opacity="1" stop-color="#FFF"/>
      <!--Define the end of the empty space of the gradient. This should be 100%-->
      <stop offset="100%" stop-opacity="1" stop-color="#FFF"/>
    </linearGradient>
  </defs>
  <!--Setup the path that you want to color. In this case, we'll fill it with the linear gradient that we defined. -->
  <path id="robot" stroke-width="8.2029" fill="url(#fill_robot)" stroke="#c3cbd4" d="M230.087 72.0448C230.337 75.0779 231.441 102.312 231.962 115.549C232.857 116.584 234.218 117.278 234.545 122.584C234.925 128.77 233.533 129.259 232.428 132.224C231.324 135.189 227.533 139.305 226.394 140.898C225.254 142.491 220.429 144.898 218.487 145.061C216.933 145.191 215.591 144.689 215.115 144.421L214.998 144.584C216.242 145.284 219.221 146.98 221.193 148.16C223.658 149.636 225.821 152 227.458 155.274C228.767 157.893 229.108 161.471 229.115 162.933L243.968 152.909C245.289 152.076 247.125 152.445 247.262 151.919C247.908 149.43 250.751 147.177 252.091 146.362C253.371 133.765 256.04 107.821 256.477 104.814C256.913 101.807 259.602 100.51 260.892 100.237C261.062 100.061 261.3 99.4921 260.892 98.6297C260.382 97.5517 258.207 94.396 256.07 86.9869C253.934 79.5778 253.601 72.404 253.797 68.3467C253.953 65.1008 254.633 62.3162 254.953 61.3296L261.656 59.4283L267.752 65.6026C269.163 67.0648 268.597 66.4985 271.28 69.2483C270.202 74.4817 271.065 76.8533 271.947 82.4395C272.829 88.0257 279.983 96.6892 281.728 94.886C283.123 93.4434 283.864 91.2794 284.06 90.3778L290.626 88.653C293.854 91.6584 300.301 97.8182 300.27 98.4141C300.231 99.1589 298.996 103.236 296.8 106.196C294.605 109.155 292.116 110.841 290.215 111.272C288.694 111.617 283.296 112.892 280.787 113.487C279.761 124.875 277.56 148.063 276.965 149.709C276.22 151.767 274.318 152.747 272.888 153.453C271.743 154.017 270.385 154.276 269.85 154.335C270.215 155.047 270.626 157.393 269.34 161.077C267.733 165.684 264.126 169.721 262.244 171.152C260.363 172.583 259.794 171.74 259.598 172.191C259.402 172.642 258.912 173.093 257.893 173.779C257.078 174.328 244.499 182.828 238.312 187.009C238.61 187.985 238.743 187.825 239.606 192.968C240.684 199.397 236.587 206.433 234.706 207.59C233.2 208.515 230.393 210.053 229.178 210.706C229.185 214.431 229.194 222.388 229.178 224.427C229.159 226.975 228.806 229.582 226.983 230.758C225.525 231.699 211.206 239.853 204.229 243.813C204.71 244.012 204.726 244.004 205.111 244.275C207.013 245.611 207.361 246.819 207.361 247.667C207.361 248.515 207.344 278.315 207.361 279.648C207.378 280.98 206.928 282.244 205.734 283.005C204.779 283.614 202.267 285.013 201.131 285.636L201.231 308.462V319.583C203.846 321.493 204.975 325.443 204.975 326.646V330.486C210.11 333.454 220.747 339.602 222.211 340.45C224.042 341.511 226.06 343.29 226.077 344.607C226.094 345.924 226.009 351.791 226.077 353.981C226.146 356.17 225.735 356.803 223.905 357.949C222.075 359.095 182.576 381.591 177.082 384.808C172.688 387.382 167.599 386.012 165.604 385.005C158.782 381.086 144.541 372.895 142.147 371.482C139.153 369.716 138.782 368.935 138.8 368.006C138.819 367.076 138.763 359.305 138.8 357.446C138.837 355.587 140.492 354.639 141.775 353.821C142.801 353.166 154.287 346.595 159.901 343.391V334.337C151.362 339.196 132.966 349.712 127.701 352.91C121.12 356.907 115.58 356.126 113.721 355.122C111.862 354.118 90.8708 342.005 88.7974 340.867C86.724 339.73 86.3195 338.212 86.3195 337.302C86.3195 336.392 86.2689 328.124 86.3195 326.91C86.37 325.696 87.0022 324.963 88.3423 324.154C89.4144 323.507 101.499 316.619 107.407 313.256C107.365 308.966 107.306 299.607 107.407 296.492C107.508 293.377 109.971 290.415 111.189 289.323V264.077C110.975 263.874 110.009 263.204 107.865 262.143C105.721 261.082 105.123 259.27 105.093 258.496V249.885C102.46 248.391 96.0132 244.708 91.2849 241.937C85.3746 238.472 85.187 230.723 85.187 229.821C85.187 229.099 85.1684 227.204 85.1684 225.994L84.8683 225.952C84.2461 225.891 83.9961 225.875 76.8544 225.329C64.6272 224.395 51.5182 211.825 49.8269 211.55C48.1355 211.275 44.288 209.142 42.2592 206.931C40.2304 204.72 41.0658 202.716 41.1914 202.471C41.2919 202.275 41.6437 201.598 41.807 201.284L41.2731 200.091C40.9367 199.325 40.8517 199.085 40.2524 197.395L40.1251 197.036C38.829 193.382 39.9178 188.95 40.5465 187.217L43.6038 181.504C38.5301 169.652 28.025 145.165 26.5945 142.037C25.1641 138.91 25.827 137.158 26.3372 136.673C28.5646 134.451 33.1954 129.83 33.8984 129.127C34.7773 128.248 36.126 128.339 37.9898 129.218C39.8536 130.097 66.1234 144.913 72.3414 148.235C75.7205 143.871 81.509 142.355 85.2214 142.022C88.9339 141.689 88.9945 143.552 89.2975 143.083C89.6006 142.613 91.8584 141.022 92.8584 141.007C93.6585 140.995 102.203 140.638 106.375 140.461L106.147 139.355C105.403 138.972 105.833 139.209 100.889 136.643C90.4367 131.215 89.4492 122.854 89.3886 121.247C89.328 119.641 87.5542 78.8672 87.5542 78.625C87.5542 78.3828 87.5425 77.5156 87.5542 77.3477C87.5636 77.2133 87.5887 76.9953 87.6001 76.9031C87.7347 76.0547 87.7774 75.7807 87.7347 75.6741C86.2552 71.9805 86.7214 63.7895 92.6637 55.4058C98.606 47.0221 104.963 48.7265 106.299 49.4175C107.367 49.9702 114.483 53.64 117.907 55.4058C130.664 47.3011 156.709 30.7488 158.828 29.3776C160.947 28.0064 164.004 29.0833 165.268 29.7931C181.196 38.0599 214.646 55.4246 221.024 58.7487C228.997 62.9038 229.776 68.2535 230.087 72.0448Z"/>
  <!--Setup a group with the id tooltip1-->
  <g id="tooltip1" visibility="hidden">
    <!--Add a rectangle to this tooltip that covers the entire SVG-->
    <rect width="100%" height="100%" fill="#FFF"/>
    <!-- Add some text to the tooltip and style it. Use the search token as part of the text-->
    <text font-size="80" x="-20" y="240" width="300" height="40" fill="#7B56DB" font-family="sans-serif">$Inventory totals:result.current_robots$%</text>
    <text font-size="80" x="-20" y="324" width="300" height="40" fill="black" font-family="sans-serif">Remaining</text>
    <!-- Add some conditions for setting the visibility of this group. -->
    <!-- Set the group to visibile when hovering over the SVG-->
    <set attributeName="visibility" to="visible" begin="tooltip1.mouseenter" end="tooltip1.mouseleave"/>
  </g>
</svg>