<svg xmlns="http://www.w3.org/2000/svg" width="326" height="415" viewBox="0 0 326 415" fill="none">
  <defs>
    <linearGradient x1="0" x2="0" y1="1" y2="0" id="fill_phone" fill="#FFF">
      <stop offset="0%" stop-opacity="1" stop-color="#7B56DB"/>
      <stop offset="$Inventory totals:result.current_phones$%" stop-opacity="1" stop-color="#7B56DB"/>
      <stop offset="$Inventory totals:result.current_phones$%" stop-opacity="1" stop-color="#FFF"/>
      <stop offset="100%" stop-opacity="1" stop-color="#FFF"/>
    </linearGradient>
  </defs>
  <path id="phone" stroke-width="8.2029" fill="url(#fill_phone)" stroke="#c3cbd4" d="M45.5595 298.976L129.228 37.7922C131.103 31.9736 134.859 27.428 140.199 25.6312C140.199 25.6312 154.871 21.7981 155.135 21.7981C159.894 19.6832 165.445 19.9476 170.732 23.252L269.601 83.393C279.779 89.6053 285.066 104.409 281.101 116.437L197.3 377.489C195.449 383.305 191.748 387.402 187.387 389.385C182.496 391.367 173.059 393.197 170.864 393.747C165.251 395.153 160.25 394.799 155.928 392.161L57.059 332.02C46.8813 325.808 41.7263 311.004 45.5595 298.976Z"/>
  <g id="tooltip1" visibility="hidden">
    <rect width="100%" height="100%" fill="#FFF"/>
    <text font-size="80" x="-20" y="240" width="300" height="40" fill="#7B56DB" font-family="sans-serif">$Inventory totals:result.current_phones$%</text>
    <text font-size="80" x="-20" y="310" width="300" height="40" fill="black" font-family="sans-serif">Remaining</text>
    <set attributeName="visibility" to="visible" begin="fill_phone.mouseenter" end="fill_phone.mouseleave"/>
    <set attributeName="visibility" to="visible" begin="phone.mouseenter" end="phone.mouseleave"/>
    <set attributeName="visibility" to="visible" begin="tooltip1.mouseenter" end="tooltip1.mouseleave"/>
  </g>
</svg>